<?xml version="1.0" encoding="UTF-8" standalone="no"?><!DOCTYPE svg PUBLIC "-//W3C//DTD SVG 1.1//EN" "http://www.w3.org/Graphics/SVG/1.1/DTD/svg11.dtd"><svg width="100%" height="100%" viewBox="0 0 277 226" version="1.1" xmlns="http://www.w3.org/2000/svg" xmlns:xlink="http://www.w3.org/1999/xlink" xml:space="preserve" xmlns:serif="http://www.serif.com/" style="fill-rule:evenodd;clip-rule:evenodd;stroke-linejoin:round;stroke-miterlimit:2;"><path d="M138.13,0c-37.479,0 -67.866,30.387 -67.866,67.875c-0,29.987 19.445,55.425 46.416,64.404c3.396,0.621 4.634,-1.475 4.634,-3.275c-0,-1.608 -0.059,-5.879 -0.092,-11.541c-18.879,4.1 -22.863,-9.1 -22.863,-9.1c-3.087,-7.838 -7.537,-9.926 -7.537,-9.926c-6.163,-4.212 0.467,-4.129 0.467,-4.129c6.812,0.484 10.395,6.996 10.395,6.996c6.055,10.371 15.888,7.375 19.755,5.642c0.616,-4.388 2.366,-7.379 4.308,-9.075c-15.071,-1.713 -30.917,-7.538 -30.917,-33.546c0,-7.408 2.646,-13.467 6.988,-18.212c-0.7,-1.717 -3.029,-8.617 0.662,-17.963c0,0 5.7,-1.825 18.667,6.958c5.412,-1.504 11.221,-2.258 16.992,-2.283c5.762,0.025 11.57,0.779 16.991,2.283c12.959,-8.783 18.646,-6.958 18.646,-6.958c3.704,9.346 1.375,16.246 0.675,17.963c4.35,4.745 6.979,10.804 6.979,18.212c0,26.075 -15.871,31.813 -30.991,33.492c2.437,2.096 4.608,6.237 4.608,12.571c-0,9.07 -0.083,16.391 -0.083,18.616c-0,1.817 1.22,3.929 4.666,3.267c26.95,-8.996 46.379,-34.417 46.379,-64.396c0,-37.487 -30.391,-67.875 -67.879,-67.875" style="fill:#181717;"/><g><path d="M53.211,183.235l-23.215,-0c-0.599,-0 -1.086,0.486 -1.086,1.085l0,11.351c0,0.599 0.487,1.086 1.086,1.086l9.056,-0l-0,14.103c-0,-0 -2.033,0.692 -7.656,0.692c-6.632,0 -15.898,-2.423 -15.898,-22.798c-0,-20.38 9.648,-23.061 18.706,-23.061c7.841,-0 11.219,1.381 13.368,2.046c0.676,0.206 1.3,-0.466 1.3,-1.065l2.591,-10.967c-0,-0.281 -0.096,-0.618 -0.415,-0.848c-0.873,-0.623 -6.198,-3.602 -19.652,-3.602c-15.498,-0 -31.396,6.594 -31.396,38.291c-0,31.699 18.202,36.422 33.54,36.422c12.7,0 20.404,-5.427 20.404,-5.427c0.317,-0.174 0.352,-0.619 0.352,-0.822l-0,-35.401c-0,-0.599 -0.486,-1.085 -1.085,-1.085" style="fill:#0e0d0d;fill-rule:nonzero;"/><path d="M172.856,155.055c-0,-0.604 -0.479,-1.092 -1.078,-1.092l-13.072,0c-0.597,0 -1.082,0.488 -1.082,1.092c0,0.003 0.003,25.262 0.003,25.262l-20.375,-0l-0,-25.262c-0,-0.604 -0.481,-1.092 -1.08,-1.092l-13.071,0c-0.594,0 -1.079,0.488 -1.079,1.092l0,68.402c0,0.603 0.485,1.094 1.079,1.094l13.071,-0c0.599,-0 1.08,-0.491 1.08,-1.094l-0,-29.258l20.375,-0c0,-0 -0.035,29.256 -0.035,29.258c-0,0.603 0.484,1.094 1.083,1.094l13.102,-0c0.599,-0 1.077,-0.491 1.079,-1.094l-0,-68.402Z" style="fill:#0e0d0d;fill-rule:nonzero;"/><path d="M77.879,164.031c-0,-4.707 -3.774,-8.511 -8.43,-8.511c-4.651,0 -8.428,3.804 -8.428,8.511c0,4.702 3.777,8.516 8.428,8.516c4.656,0 8.43,-3.814 8.43,-8.516" style="fill:#0e0d0d;fill-rule:nonzero;"/><path d="M76.944,222.795l-0,-45.342c-0,-0.599 -0.483,-1.089 -1.082,-1.089l-13.03,-0c-0.598,-0 -1.133,0.616 -1.133,1.216l-0,45.237c-0,1.328 0.828,1.724 1.901,1.724l11.74,0c1.288,0 1.604,-0.633 1.604,-1.746Z" style="fill:#0e0d0d;fill-rule:nonzero;"/><path d="M222.535,176.466l-12.972,0c-0.595,0 -1.079,0.491 -1.079,1.094l0,33.54c0,-0 -3.296,2.411 -7.973,2.411c-4.678,0 -5.919,-2.122 -5.919,-6.702l0,-29.249c0,-0.603 -0.483,-1.094 -1.078,-1.094l-13.165,0c-0.594,0 -1.081,0.491 -1.081,1.094l-0,31.463c-0,13.604 7.581,16.932 18.011,16.932c8.557,-0 15.455,-4.728 15.455,-4.728c0,0 0.328,2.492 0.477,2.787c0.148,0.295 0.536,0.592 0.955,0.592l8.375,-0.037c0.593,0 1.081,-0.49 1.081,-1.092l-0.005,-45.917c-0,-0.603 -0.485,-1.094 -1.082,-1.094" style="fill:#0e0d0d;fill-rule:nonzero;"/><path d="M252.872,213.469c-4.499,-0.137 -7.551,-2.178 -7.551,-2.178l-0,-21.662c-0,0 3.01,-1.845 6.704,-2.175c4.672,-0.418 9.173,0.993 9.173,12.136c-0,11.75 -2.032,14.07 -8.326,13.879m5.116,-38.539c-7.367,-0 -12.378,3.287 -12.378,3.287l-0,-23.162c-0,-0.604 -0.483,-1.092 -1.079,-1.092l-13.109,0c-0.596,0 -1.08,0.488 -1.08,1.092l0,68.402c0,0.604 0.484,1.095 1.082,1.095l9.095,-0c0.41,-0 0.72,-0.212 0.949,-0.582c0.226,-0.367 0.552,-3.153 0.552,-3.153c0,-0 5.36,5.079 15.507,5.079c11.914,0 18.746,-6.043 18.746,-27.127c-0,-21.084 -10.912,-23.839 -18.285,-23.839" style="fill:#0e0d0d;fill-rule:nonzero;"/><path d="M114.513,176.357l-9.806,0c0,0 -0.014,-12.951 -0.014,-12.954c-0,-0.49 -0.253,-0.736 -0.82,-0.736l-13.362,0c-0.519,0 -0.798,0.23 -0.798,0.729l-0,13.386c-0,0 -6.697,1.617 -7.149,1.748c-0.451,0.13 -0.783,0.546 -0.783,1.042l-0,8.412c-0,0.605 0.483,1.093 1.08,1.093l6.852,0l-0,20.238c-0,15.03 10.543,16.507 17.657,16.507c3.252,-0 7.141,-1.044 7.783,-1.281c0.388,-0.143 0.614,-0.545 0.614,-0.98l0.011,-9.255c-0,-0.603 -0.51,-1.092 -1.084,-1.092c-0.571,0 -2.033,0.233 -3.538,0.233c-4.816,-0 -6.449,-2.239 -6.449,-5.138c0,-2.897 -0,-19.232 -0,-19.232l9.806,0c0.598,0 1.082,-0.488 1.082,-1.093l0,-10.537c0,-0.603 -0.484,-1.09 -1.082,-1.09" style="fill:#0e0d0d;fill-rule:nonzero;"/></g></svg>